<mxfile host="app.diagrams.net" modified="2024-01-31T18:38:49.828Z" agent="Mozilla/5.0 (Windows NT 10.0; Win64; x64) AppleWebKit/537.36 (KHTML, like Gecko) Chrome/121.0.0.0 Safari/537.36" etag="GpErdg8ChLvZL0LOJnWZ" version="23.1.0" type="device">
  <diagram name="PÃ¡gina-1" id="50Xu_SQItej-bWngITx5">
    <mxGraphModel dx="733" dy="362" grid="1" gridSize="10" guides="1" tooltips="1" connect="1" arrows="1" fold="1" page="1" pageScale="1" pageWidth="827" pageHeight="1169" math="0" shadow="0">
      <root>
        <mxCell id="0" />
        <mxCell id="1" parent="0" />
        <mxCell id="HuBReZYRGsjlNU0afiZ1-42" style="edgeStyle=orthogonalEdgeStyle;rounded=0;orthogonalLoop=1;jettySize=auto;html=1;entryX=0;entryY=0.5;entryDx=0;entryDy=0;" edge="1" parent="1" source="HuBReZYRGsjlNU0afiZ1-11" target="HuBReZYRGsjlNU0afiZ1-35">
          <mxGeometry relative="1" as="geometry" />
        </mxCell>
        <mxCell id="HuBReZYRGsjlNU0afiZ1-11" value="Math Assignement" style="swimlane;fontStyle=0;childLayout=stackLayout;horizontal=1;startSize=30;fillColor=none;horizontalStack=0;resizeParent=1;resizeParentMax=0;resizeLast=0;collapsible=1;marginBottom=0;whiteSpace=wrap;html=1;" vertex="1" parent="1">
          <mxGeometry x="197.5" y="350" width="140" height="82" as="geometry" />
        </mxCell>
        <mxCell id="HuBReZYRGsjlNU0afiZ1-21" value="+ _textBook: string" style="text;strokeColor=none;fillColor=none;align=left;verticalAlign=top;spacingLeft=4;spacingRight=4;overflow=hidden;rotatable=0;points=[[0,0.5],[1,0.5]];portConstraint=eastwest;whiteSpace=wrap;html=1;" vertex="1" parent="HuBReZYRGsjlNU0afiZ1-11">
          <mxGeometry y="30" width="140" height="26" as="geometry" />
        </mxCell>
        <mxCell id="HuBReZYRGsjlNU0afiZ1-22" value="+ _problems: string" style="text;strokeColor=none;fillColor=none;align=left;verticalAlign=top;spacingLeft=4;spacingRight=4;overflow=hidden;rotatable=0;points=[[0,0.5],[1,0.5]];portConstraint=eastwest;whiteSpace=wrap;html=1;" vertex="1" parent="HuBReZYRGsjlNU0afiZ1-11">
          <mxGeometry y="56" width="140" height="26" as="geometry" />
        </mxCell>
        <mxCell id="HuBReZYRGsjlNU0afiZ1-23" value="Constructor with all attributes" style="text;html=1;align=center;verticalAlign=middle;resizable=0;points=[];autosize=1;strokeColor=none;fillColor=none;" vertex="1" parent="1">
          <mxGeometry x="185" y="448" width="180" height="30" as="geometry" />
        </mxCell>
        <mxCell id="HuBReZYRGsjlNU0afiZ1-25" value="DisplayHomeWorkList() : return section and problems" style="text;html=1;align=center;verticalAlign=middle;resizable=0;points=[];autosize=1;strokeColor=none;fillColor=none;" vertex="1" parent="1">
          <mxGeometry x="120" y="478" width="310" height="30" as="geometry" />
        </mxCell>
        <mxCell id="HuBReZYRGsjlNU0afiZ1-43" style="edgeStyle=orthogonalEdgeStyle;rounded=0;orthogonalLoop=1;jettySize=auto;html=1;entryX=1;entryY=0.5;entryDx=0;entryDy=0;" edge="1" parent="1" source="HuBReZYRGsjlNU0afiZ1-26" target="HuBReZYRGsjlNU0afiZ1-35">
          <mxGeometry relative="1" as="geometry" />
        </mxCell>
        <mxCell id="HuBReZYRGsjlNU0afiZ1-26" value="Writing Assignement" style="swimlane;fontStyle=0;childLayout=stackLayout;horizontal=1;startSize=30;fillColor=none;horizontalStack=0;resizeParent=1;resizeParentMax=0;resizeLast=0;collapsible=1;marginBottom=0;whiteSpace=wrap;html=1;" vertex="1" parent="1">
          <mxGeometry x="530" y="352" width="140" height="56" as="geometry" />
        </mxCell>
        <mxCell id="HuBReZYRGsjlNU0afiZ1-29" value="+ _title: string" style="text;strokeColor=none;fillColor=none;align=left;verticalAlign=top;spacingLeft=4;spacingRight=4;overflow=hidden;rotatable=0;points=[[0,0.5],[1,0.5]];portConstraint=eastwest;whiteSpace=wrap;html=1;" vertex="1" parent="HuBReZYRGsjlNU0afiZ1-26">
          <mxGeometry y="30" width="140" height="26" as="geometry" />
        </mxCell>
        <mxCell id="HuBReZYRGsjlNU0afiZ1-31" value="Constructor with all attributes" style="text;html=1;align=center;verticalAlign=middle;resizable=0;points=[];autosize=1;strokeColor=none;fillColor=none;" vertex="1" parent="1">
          <mxGeometry x="510" y="430" width="180" height="30" as="geometry" />
        </mxCell>
        <mxCell id="HuBReZYRGsjlNU0afiZ1-33" value="GetTitleStudentInfo() : return ${title} by {student}" style="text;html=1;align=center;verticalAlign=middle;resizable=0;points=[];autosize=1;strokeColor=none;fillColor=none;" vertex="1" parent="1">
          <mxGeometry x="460" y="460" width="280" height="30" as="geometry" />
        </mxCell>
        <mxCell id="HuBReZYRGsjlNU0afiZ1-34" value="Assignement" style="swimlane;fontStyle=0;childLayout=stackLayout;horizontal=1;startSize=30;fillColor=none;horizontalStack=0;resizeParent=1;resizeParentMax=0;resizeLast=0;collapsible=1;marginBottom=0;whiteSpace=wrap;html=1;" vertex="1" parent="1">
          <mxGeometry x="355" y="190" width="140" height="82" as="geometry" />
        </mxCell>
        <mxCell id="HuBReZYRGsjlNU0afiZ1-35" value="+ _studentName: string" style="text;strokeColor=none;fillColor=none;align=left;verticalAlign=top;spacingLeft=4;spacingRight=4;overflow=hidden;rotatable=0;points=[[0,0.5],[1,0.5]];portConstraint=eastwest;whiteSpace=wrap;html=1;" vertex="1" parent="HuBReZYRGsjlNU0afiZ1-34">
          <mxGeometry y="30" width="140" height="26" as="geometry" />
        </mxCell>
        <mxCell id="HuBReZYRGsjlNU0afiZ1-36" value="+ _topic: string" style="text;strokeColor=none;fillColor=none;align=left;verticalAlign=top;spacingLeft=4;spacingRight=4;overflow=hidden;rotatable=0;points=[[0,0.5],[1,0.5]];portConstraint=eastwest;whiteSpace=wrap;html=1;" vertex="1" parent="HuBReZYRGsjlNU0afiZ1-34">
          <mxGeometry y="56" width="140" height="26" as="geometry" />
        </mxCell>
        <mxCell id="HuBReZYRGsjlNU0afiZ1-39" value="Constructor with all attributes" style="text;html=1;align=center;verticalAlign=middle;resizable=0;points=[];autosize=1;strokeColor=none;fillColor=none;" vertex="1" parent="1">
          <mxGeometry x="335" y="290" width="180" height="30" as="geometry" />
        </mxCell>
        <mxCell id="HuBReZYRGsjlNU0afiZ1-40" value="GetSumary() : return name and topic" style="text;html=1;align=center;verticalAlign=middle;resizable=0;points=[];autosize=1;strokeColor=none;fillColor=none;" vertex="1" parent="1">
          <mxGeometry x="315" y="320" width="220" height="30" as="geometry" />
        </mxCell>
      </root>
    </mxGraphModel>
  </diagram>
</mxfile>
